<svg size="20" width="129" height="25" fill="none" xmlns="http://www.w3.org/2000/svg">
    <g clip-path="url(#clip0_4115_2037)" fill="#000">
        <path d="M4.666 4.058H7.63c1.11 0 2.453 0 3.19 1.04.342.503.517 1.102.501 1.711 0 1.6-.632 2.59-2.265 2.884-.526.065-1.055.092-1.584.08H4.666V4.058ZM0 .587V19.44h4.666V13.27h3.112c2.69-.053 5.354-.187 7.067-2.697a6.477 6.477 0 0 0 1.11-3.738A7.255 7.255 0 0 0 14.923 3a4.372 4.372 0 0 0-.843-.934C12.658.8 10.995.64 9.22.587H0ZM20.99 13.031c.474-1.55.951-3.098 1.399-4.648.33-1.094.606-2.188.896-3.311l2.427 7.96h-4.723ZM25.79.587h-4.853L14.028 19.44h4.96l.921-3.001h6.856l.922 3h4.96L25.79.588ZM38.725.587l4.034 6.942c.949 1.71 1.897 3.418 2.796 5.155L45.345.587H49.8V19.44h-4.564l-3.481-5.982a62.305 62.305 0 0 1-1.686-2.858c-.527-.96-1.054-2-1.584-3l.161 11.856h-4.485V.586h4.564ZM65.86.587v3.711h-4.841V19.44h-4.692V4.298h-4.854V.587H65.86ZM79.881 10.467c-.053 1.494-.421 3-1.478 4.138-.413.444-.911.799-1.464 1.043a4.402 4.402 0 0 1-1.75.374 4.19 4.19 0 0 1-1.71-.341 4.236 4.236 0 0 1-1.429-1.01c-.767-.826-1.557-2.213-1.557-4.778 0-2 .658-4.334 2.532-5.395a3.975 3.975 0 0 1 2.081-.533 4.768 4.768 0 0 1 1.795.333 4.361 4.361 0 0 1 1.801 1.417c.547.774 1.258 2.374 1.18 4.752Zm1.126 7.556c2.305-1.894 3.534-5.002 3.534-7.876 0-2.591-.988-5.669-2.796-7.53C80.757 1.618 78.636 0 75.1 0c-4.301 0-6.478 2.43-7.426 3.845a11.155 11.155 0 0 0-1.768 6.088c0 1.12.158 4.699 2.664 7.37C70.94 19.812 74.026 20 75.156 20c3.062.007 4.863-1.147 5.851-1.977ZM91.383.587l4.034 6.942c.952 1.71 1.9 3.418 2.796 5.155L98.003.587h4.455V19.44h-4.56l-3.482-5.982A62.214 62.214 0 0 1 92.73 10.6c-.526-.96-1.057-2-1.584-3l.159 11.856h-4.482V.586h4.56ZM119.334.587v3.631h-9.121V7.67h8.515v3.572h-8.515v4.488h9.981v3.71H105.57V.588h13.764ZM124.066 3.395V2.307h.695c.267 0 .557 0 .705.25a.666.666 0 0 1 .069.274.552.552 0 0 1-.079.28c-.118.233-.349.284-.813.284h-.577Zm2.493 2.734a3.371 3.371 0 0 1-.329-1.037c-.059-.334-.069-.774-.329-1.044a.864.864 0 0 0-.3-.203c.114-.036.224-.083.329-.14.101-.065.194-.143.277-.23a1.01 1.01 0 0 0 .26-.694 1.26 1.26 0 0 0-.27-.767c-.385-.47-1.011-.44-1.548-.44h-1.541v4.555h.945v-1.97h.227c.208-.024.417.01.606.1.198.13.241.28.31.703.034.352.104.7.207 1.037.02.04.04.09.06.13h1.096Zm1.676-2.224a3.51 3.51 0 0 0-.685-2.161 3.481 3.481 0 0 0-1.248-1.065 3.441 3.441 0 0 0-1.59-.372 3.495 3.495 0 0 0-1.512.327 3.54 3.54 0 0 0-1.228.95 3.518 3.518 0 0 0-.79 2.29 3.605 3.605 0 0 0 .354 1.593 3.56 3.56 0 0 0 1.019 1.265 3.569 3.569 0 0 0 2.163.734c.935 0 1.832-.374 2.494-1.041a3.601 3.601 0 0 0 1.04-2.52h-.017Zm-.329 0a3.277 3.277 0 0 1-.583 1.86c-.378.546-.913.96-1.531 1.187a3.271 3.271 0 0 1-1.08.19 3.197 3.197 0 0 1-2.275-.954 3.28 3.28 0 0 1-.942-2.303c0-.864.339-1.693.942-2.304a3.197 3.197 0 0 1 2.275-.954c.502-.004.997.112 1.446.34.448.227.838.558 1.136.967.409.57.628 1.256.625 1.96l-.013.01Z"></path>
    </g>
</svg>
